<?xml version="1.0" encoding="utf-8"?>
<!-- Generator: Adobe Illustrator 26.5.1, SVG Export Plug-In . SVG Version: 6.00 Build 0)  -->
<svg version="1.1" id="Layer_1" xmlns="http://www.w3.org/2000/svg" xmlns:xlink="http://www.w3.org/1999/xlink" x="0px" y="0px"
	 viewBox="0 0 174 262" style="enable-background:new 0 0 174 262;" xml:space="preserve">
<style type="text/css">
	.st0{fill-rule:evenodd;clip-rule:evenodd;fill:#FCFDFE;}
	.st1{fill-rule:evenodd;clip-rule:evenodd;fill:#43ABE6;}
	.st2{fill-rule:evenodd;clip-rule:evenodd;fill:#F1F8FD;}
	.st3{fill-rule:evenodd;clip-rule:evenodd;fill:#FDFEFE;}
	.st4{fill-rule:evenodd;clip-rule:evenodd;fill:#FAFDFE;}
	.st5{fill-rule:evenodd;clip-rule:evenodd;fill:#F5FAFD;}
	.st6{fill-rule:evenodd;clip-rule:evenodd;fill:#FEFFFE;}
</style>
<g>
	<path class="st0" d="M80.5,4.5c44.3,1.2,72.8,22.8,85.5,65c3.2,18.5,0.5,36.2-8,53c-15.2,27.7-30.8,55-47,82
		c-9.3,17.3-17,35.3-23,54c-2.6,1.4-4.6,0.7-6-2c-7-20.9-15.9-41.1-26.5-60.5c-15.1-24.2-29.4-48.8-43-74c-15.9-37.2-9.2-69.9,20-98
		C46.5,12.5,62.5,6,80.5,4.5z"/>
</g>
<g>
	<path class="st1" d="M77.5,10.5c36.4-1.1,62.6,14.6,78.5,47c5.7,15,6.7,30.3,3,46c-4.6,13.6-10.6,26.6-18,39
		c-16.5,26.2-31.9,53.2-46,81c-3.3,7.6-6.3,15.2-9,23c-15.5-36.4-34.2-71.1-56-104c-9.1-14.6-15.8-30.3-20-47
		C8.1,58.7,23.6,32.2,56.5,16C63.5,13.6,70.5,11.8,77.5,10.5z"/>
</g>
<g>
	<path class="st2" d="M115.5,40.5c5.5,1.4,8.1,4.8,8,10c-1.2,1.1-2.6,1.3-4,0.5c-1.8-1.8-3.7-3.7-5.5-5.5
		C113.4,43.5,113.9,41.8,115.5,40.5z"/>
</g>
<g>
	<path class="st3" d="M104.5,46.5c6.7,1.6,11.7,5.6,15,12c-11.3,12-23,23.7-35,35c-4.3-2.8-8.1-6.1-11.5-10c-0.7-1.7-0.7-3.3,0-5
		C83.7,68,94.2,57.3,104.5,46.5z"/>
</g>
<g>
	<path class="st4" d="M108.5,75.5c10.4,10.5,14.2,23.2,11.5,38c-0.7,4.2-2.2,8-4.5,11.5c4.9-0.2,9,1.3,12.5,4.5
		c1.4,4.4,0.2,7.9-3.5,10.5c-26,0.7-52,0.7-78,0c-5.6-5.2-5.3-9.8,1-14c18.7-0.2,37.3-0.7,56-1.5c8.3-14.2,7.9-28.2-1-42
		C104.5,80.1,106.5,77.8,108.5,75.5z"/>
</g>
<g>
	<path class="st5" d="M68.5,87.5c4.2,1.2,7.2,3.9,9,8c-0.3,1.7-1.3,2.7-3,3C68.8,96.6,66.8,92.9,68.5,87.5z"/>
</g>
<g>
	<path class="st6" d="M43.5,115.5c13.3-0.2,26.7,0,40,0.5c2.7,1.7,2.7,3.3,0,5c-13.3,0.7-26.7,0.7-40,0
		C42.2,119.2,42.2,117.3,43.5,115.5z"/>
</g>
</svg>
